<svg width="100%" height="150" viewBox="0 0 920 150" xmlns="http://www.w3.org/2000/svg" role="img" aria-label="AdrianShah README header">
  <defs>
    <!-- Night sky -->
    <linearGradient id="sky" x1="0" y1="0" x2="0" y2="1">
      <stop offset="0%" stop-color="#020617"/>
      <stop offset="35%" stop-color="#0a1628"/>
      <stop offset="70%" stop-color="#0f1f3d"/>
      <stop offset="100%" stop-color="#141820"/>
    </linearGradient>

    <!-- Milky way band -->
    <linearGradient id="milkyWay" x1="0" y1="0" x2="1" y2="1">
      <stop offset="30%" stop-color="#788cc8" stop-opacity="0"/>
      <stop offset="42%" stop-color="#788cc8" stop-opacity="0.08"/>
      <stop offset="48%" stop-color="#b4bee6" stop-opacity="0.14"/>
      <stop offset="54%" stop-color="#788cc8" stop-opacity="0.08"/>
      <stop offset="66%" stop-color="#788cc8" stop-opacity="0"/>
    </linearGradient>

    <!-- Horizon glow -->
    <linearGradient id="horizonGlow" x1="0" y1="0" x2="0" y2="1">
      <stop offset="0%" stop-color="#ffb450" stop-opacity="0"/>
      <stop offset="40%" stop-color="#ffb450" stop-opacity="0.06"/>
      <stop offset="100%" stop-color="#ff8c32" stop-opacity="0.12"/>
    </linearGradient>

    <linearGradient id="archStone" x1="0" y1="0" x2="0" y2="1">
      <stop offset="0%" stop-color="#3d3528"/>
      <stop offset="100%" stop-color="#1a1510"/>
    </linearGradient>

    <radialGradient id="uplight" cx="50%" cy="100%" r="80%">
      <stop offset="0%" stop-color="#ffb347" stop-opacity="0.55"/>
      <stop offset="100%" stop-color="#ffb347" stop-opacity="0"/>
    </radialGradient>

    <filter id="archGlow" x="-20%" y="-80%" width="140%" height="260%">
      <feGaussianBlur stdDeviation="3" result="blur"/>
      <feMerge>
        <feMergeNode in="blur"/>
        <feMergeNode in="SourceGraphic"/>
      </feMerge>
    </filter>

    <mask id="crescentMask">
      <rect width="920" height="150" fill="black"/>
      <circle cx="852" cy="22" r="7" fill="white"/>
      <circle cx="856" cy="20" r="6" fill="black"/>
    </mask>
  </defs>

  <!-- Background -->
  <rect width="920" height="150" fill="url(#sky)"/>

  <!-- Star field -->
  <g fill="#ffffff" opacity="0.85">
    <circle cx="92" cy="22" r="0.5" opacity="0.9"/>
    <circle cx="230" cy="12" r="0.5" opacity="0.7"/>
    <circle cx="368" cy="33" r="0.75" opacity="0.85"/>
    <circle cx="506" cy="18" r="0.5" opacity="0.6"/>
    <circle cx="644" cy="27" r="0.5" opacity="0.75"/>
    <circle cx="782" cy="15" r="0.75" opacity="0.8"/>
    <circle cx="138" cy="52" r="0.5" opacity="0.5"/>
    <circle cx="846" cy="42" r="0.5" opacity="0.65"/>
    <circle cx="303" cy="61" r="0.5" opacity="0.45"/>
    <circle cx="570" cy="55" r="0.5" opacity="0.55"/>
    <circle cx="718" cy="68" r="0.5" opacity="0.4"/>
    <circle cx="46" cy="38" r="0.5" opacity="0.55"/>
    <circle cx="175" cy="18" r="0.5" opacity="0.65"/>
    <circle cx="420" cy="8" r="0.5" opacity="0.8"/>
    <circle cx="610" cy="42" r="0.5" opacity="0.5"/>
    <circle cx="690" cy="8" r="0.75" opacity="0.7"/>
    <circle cx="810" cy="48" r="0.5" opacity="0.45"/>
    <circle cx="260" cy="45" r="0.5" opacity="0.6"/>
    <circle cx="480" cy="38" r="0.5" opacity="0.5"/>
    <circle cx="540" cy="8" r="0.5" opacity="0.75"/>
    <circle cx="120" cy="72" r="0.5" opacity="0.35"/>
    <circle cx="880" cy="58" r="0.5" opacity="0.4"/>
    <circle cx="350" cy="22" r="0.5" opacity="0.7"/>
    <circle cx="760" cy="35" r="0.5" opacity="0.55"/>
  </g>

  <!-- Milky way overlay -->
  <rect width="920" height="150" fill="url(#milkyWay)" opacity="1"/>

  <!-- Horizon glow above aqueduct -->
  <rect x="0" y="98" width="920" height="40" fill="url(#horizonGlow)"/>

  <!-- Kamares aqueduct (bottom layer) -->
  <g transform="translate(0, 60)">
    <!-- Uplight pools under each of 19 arches -->
    <g opacity="0.7">
      <ellipse cx="46" cy="78" rx="18" ry="8" fill="url(#uplight)"/>
      <ellipse cx="92" cy="78" rx="18" ry="8" fill="url(#uplight)"/>
      <ellipse cx="138" cy="78" rx="18" ry="8" fill="url(#uplight)"/>
      <ellipse cx="184" cy="78" rx="18" ry="8" fill="url(#uplight)"/>
      <ellipse cx="230" cy="78" rx="18" ry="8" fill="url(#uplight)"/>
      <ellipse cx="276" cy="78" rx="18" ry="8" fill="url(#uplight)"/>
      <ellipse cx="322" cy="78" rx="18" ry="8" fill="url(#uplight)"/>
      <ellipse cx="368" cy="78" rx="18" ry="8" fill="url(#uplight)"/>
      <ellipse cx="414" cy="78" rx="18" ry="8" fill="url(#uplight)"/>
      <ellipse cx="460" cy="78" rx="18" ry="8" fill="url(#uplight)"/>
      <ellipse cx="506" cy="78" rx="18" ry="8" fill="url(#uplight)"/>
      <ellipse cx="552" cy="78" rx="18" ry="8" fill="url(#uplight)"/>
      <ellipse cx="598" cy="78" rx="18" ry="8" fill="url(#uplight)"/>
      <ellipse cx="644" cy="78" rx="18" ry="8" fill="url(#uplight)"/>
      <ellipse cx="690" cy="78" rx="18" ry="8" fill="url(#uplight)"/>
      <ellipse cx="736" cy="78" rx="18" ry="8" fill="url(#uplight)"/>
      <ellipse cx="782" cy="78" rx="18" ry="8" fill="url(#uplight)"/>
      <ellipse cx="828" cy="78" rx="18" ry="8" fill="url(#uplight)"/>
      <ellipse cx="874" cy="78" rx="18" ry="8" fill="url(#uplight)"/>
    </g>

    <!-- Aqueduct structure -->
    <rect x="0" y="68" width="920" height="22" fill="#0c0a08"/>
    <g fill="url(#archStone)" filter="url(#archGlow)">
      <path d="M 0 90 L 0 68 L 920 68 L 920 90 Z"/>
      <path d="M 12 90 L 12 52 A 22 22 0 0 1 56 52 L 56 90 Z"/>
      <path d="M 58 90 L 58 52 A 22 22 0 0 1 102 52 L 102 90 Z"/>
      <path d="M 104 90 L 104 52 A 22 22 0 0 1 148 52 L 148 90 Z"/>
      <path d="M 150 90 L 150 52 A 22 22 0 0 1 194 52 L 194 90 Z"/>
      <path d="M 196 90 L 196 52 A 22 22 0 0 1 240 52 L 240 90 Z"/>
      <path d="M 242 90 L 242 52 A 22 22 0 0 1 286 52 L 286 90 Z"/>
      <path d="M 288 90 L 288 52 A 22 22 0 0 1 332 52 L 332 90 Z"/>
      <path d="M 334 90 L 334 52 A 22 22 0 0 1 378 52 L 378 90 Z"/>
      <path d="M 380 90 L 380 52 A 22 22 0 0 1 424 52 L 424 90 Z"/>
      <path d="M 426 90 L 426 52 A 22 22 0 0 1 470 52 L 470 90 Z"/>
      <path d="M 472 90 L 472 52 A 22 22 0 0 1 516 52 L 516 90 Z"/>
      <path d="M 518 90 L 518 52 A 22 22 0 0 1 562 52 L 562 90 Z"/>
      <path d="M 564 90 L 564 52 A 22 22 0 0 1 608 52 L 608 90 Z"/>
      <path d="M 610 90 L 610 52 A 22 22 0 0 1 654 52 L 654 90 Z"/>
      <path d="M 656 90 L 656 52 A 22 22 0 0 1 700 52 L 700 90 Z"/>
      <path d="M 702 90 L 702 52 A 22 22 0 0 1 746 52 L 746 90 Z"/>
      <path d="M 748 90 L 748 52 A 22 22 0 0 1 792 52 L 792 90 Z"/>
      <path d="M 794 90 L 794 52 A 22 22 0 0 1 838 52 L 838 90 Z"/>
      <path d="M 840 90 L 840 52 A 22 22 0 0 1 884 52 L 884 90 Z"/>
    </g>

    <!-- Warm inner arch highlights -->
    <g fill="none" stroke="#e8a040" stroke-width="1" opacity="0.35">
      <path d="M 14 88 L 14 54 A 20 20 0 0 1 54 54 L 54 88"/>
      <path d="M 60 88 L 60 54 A 20 20 0 0 1 100 54 L 100 88"/>
      <path d="M 106 88 L 106 54 A 20 20 0 0 1 146 54 L 146 88"/>
      <path d="M 152 88 L 152 54 A 20 20 0 0 1 192 54 L 192 88"/>
      <path d="M 198 88 L 198 54 A 20 20 0 0 1 238 54 L 238 88"/>
      <path d="M 244 88 L 244 54 A 20 20 0 0 1 284 54 L 284 88"/>
      <path d="M 290 88 L 290 54 A 20 20 0 0 1 330 54 L 330 88"/>
      <path d="M 336 88 L 336 54 A 20 20 0 0 1 376 54 L 376 88"/>
      <path d="M 382 88 L 382 54 A 20 20 0 0 1 422 54 L 422 88"/>
      <path d="M 428 88 L 428 54 A 20 20 0 0 1 468 54 L 468 88"/>
      <path d="M 474 88 L 474 54 A 20 20 0 0 1 514 54 L 514 88"/>
      <path d="M 520 88 L 520 54 A 20 20 0 0 1 560 54 L 560 88"/>
      <path d="M 566 88 L 566 54 A 20 20 0 0 1 606 54 L 606 88"/>
      <path d="M 612 88 L 612 54 A 20 20 0 0 1 652 54 L 652 88"/>
      <path d="M 658 88 L 658 54 A 20 20 0 0 1 698 54 L 698 88"/>
      <path d="M 704 88 L 704 54 A 20 20 0 0 1 744 54 L 744 88"/>
      <path d="M 750 88 L 750 54 A 20 20 0 0 1 790 54 L 790 88"/>
      <path d="M 796 88 L 796 54 A 20 20 0 0 1 836 54 L 836 88"/>
      <path d="M 842 88 L 842 54 A 20 20 0 0 1 882 54 L 882 88"/>
    </g>
  </g>

  <!-- Crescent moon (upper right) -->
  <circle cx="852" cy="22" r="7" fill="#f4ecd0" opacity="0.85" mask="url(#crescentMask)"/>

  <!-- Terminal-style text overlay -->
  <text
    x="18"
    y="26"
    fill="#8b949e"
    font-family="ui-monospace, SFMono-Regular, 'SF Mono', Menlo, Consolas, monospace"
    font-size="12"
  >AdrianShah / README.md</text>

  <text
    x="18"
    y="52"
    fill="#58a6ff"
    font-family="ui-monospace, SFMono-Regular, 'SF Mono', Menlo, Consolas, monospace"
    font-size="22"
    font-weight="700"
  >$ </text>
</svg>
